# xmcd
#
# Track frame offsets:
#	150
#	18648
#	35123
#	54220
#	70703
#	90905
#	109369
#	131984
#	152454
#	164822
#	188562
#	206667
#	224737
#	242119
#
# Disc length: 3527 seconds
#
# Revision: 16
# Processed by: cddbd v1.5.2PL0 Copyright (c) Steve Scherf et al.
# Submitted via: Jack! The Knife 20 Magnifico
#
DISCID=cc0dc50e
DTITLE=Paul Anka - Rock Swings
DYEAR=2005
DGENRE=Swing
TTITLE0=Eye Of The Tiger
TTITLE1=Jump
TTITLE2=Everybody Hurts
TTITLE3=Wonderwall
TTITLE4=Black Hole Sun
TTITLE5=It's My Life
TTITLE6=It's A Sin
TTITLE7=True
TTITLE8=Smells Like Teen Spirit
TTITLE9=Hello
TTITLE10=Eyes Without A Face
TTITLE11=Lovecats
TTITLE12=The Way You Make Me Feel
TTITLE13=Tears In Heaven
EXTD=Paul Anka
EXTT0=
EXTT1=
EXTT2=
EXTT3=
EXTT4=
EXTT5=
EXTT6=
EXTT7=
EXTT8=
EXTT9=
EXTT10=
EXTT11=
EXTT12=
EXTT13=
PLAYORDER=
